<?xml version="1.0" encoding="UTF-8" standalone="no"?>
<!-- Created with Inkscape (http://www.inkscape.org/) -->

<svg
   xmlns:dc="http://purl.org/dc/elements/1.1/"
   xmlns:cc="http://creativecommons.org/ns#"
   xmlns:rdf="http://www.w3.org/1999/02/22-rdf-syntax-ns#"
   xmlns:svg="http://www.w3.org/2000/svg"
   xmlns="http://www.w3.org/2000/svg"
   xmlns:sodipodi="http://sodipodi.sourceforge.net/DTD/sodipodi-0.dtd"
   xmlns:inkscape="http://www.inkscape.org/namespaces/inkscape"
   width="210mm"
   height="297mm"
   id="svg2"
   version="1.1"
   inkscape:version="0.48.4 r9939"
   sodipodi:docname="pmedianas.svg">
  <defs
     id="defs4" />
  <sodipodi:namedview
     id="base"
     pagecolor="#ffffff"
     bordercolor="#666666"
     borderopacity="1.0"
     inkscape:pageopacity="0.0"
     inkscape:pageshadow="2"
     inkscape:zoom="1.4"
     inkscape:cx="350.77294"
     inkscape:cy="486.2239"
     inkscape:document-units="px"
     inkscape:current-layer="layer1"
     showgrid="false"
     inkscape:window-width="1301"
     inkscape:window-height="744"
     inkscape:window-x="65"
     inkscape:window-y="24"
     inkscape:window-maximized="1" />
  <metadata
     id="metadata7">
    <rdf:RDF>
      <cc:Work
         rdf:about="">
        <dc:format>image/svg+xml</dc:format>
        <dc:type
           rdf:resource="http://purl.org/dc/dcmitype/StillImage" />
        <dc:title></dc:title>
      </cc:Work>
    </rdf:RDF>
  </metadata>
  <g
     inkscape:label="Camada 1"
     inkscape:groupmode="layer"
     id="layer1">
    <g
       id="g3843"
       inkscape:export-filename="/home/zeferino/Documentos/talks/slides/img/pmed1.png"
       inkscape:export-xdpi="139.21165"
       inkscape:export-ydpi="139.21165">
      <rect
         y="433.64374"
         x="65.65992"
         height="193.9493"
         width="193.9493"
         id="rect2985"
         style="fill:#ffffff;fill-rule:evenodd;stroke:none;stroke-width:1px;stroke-linecap:butt;stroke-linejoin:miter;stroke-opacity:1;fill-opacity:1" />
      <path
         transform="matrix(1.5454545,0,0,1.5454545,-273.42992,-201.4531)"
         d="m 326.27926,503.5968 a 2.7779195,2.7779195 0 1 1 -5.55584,0 2.7779195,2.7779195 0 1 1 5.55584,0 z"
         sodipodi:ry="2.7779195"
         sodipodi:rx="2.7779195"
         sodipodi:cy="503.5968"
         sodipodi:cx="323.50134"
         id="path2989"
         style="fill:#000000;fill-opacity:1;fill-rule:evenodd;stroke:none"
         sodipodi:type="arc" />
      <path
         sodipodi:type="arc"
         style="fill:#000000;fill-opacity:1;fill-rule:evenodd;stroke:none"
         id="path3759"
         sodipodi:cx="323.50134"
         sodipodi:cy="503.5968"
         sodipodi:rx="2.7779195"
         sodipodi:ry="2.7779195"
         d="m 326.27926,503.5968 a 2.7779195,2.7779195 0 1 1 -5.55584,0 2.7779195,2.7779195 0 1 1 5.55584,0 z"
         transform="matrix(1.5454545,0,0,1.5454545,-417.88173,-322.67141)" />
      <path
         transform="matrix(1.5454545,0,0,1.5454545,-385.55685,-318.12572)"
         d="m 326.27926,503.5968 a 2.7779195,2.7779195 0 1 1 -5.55584,0 2.7779195,2.7779195 0 1 1 5.55584,0 z"
         sodipodi:ry="2.7779195"
         sodipodi:rx="2.7779195"
         sodipodi:cy="503.5968"
         sodipodi:cx="323.50134"
         id="path3761"
         style="fill:#000000;fill-opacity:1;fill-rule:evenodd;stroke:none"
         sodipodi:type="arc" />
      <path
         sodipodi:type="arc"
         style="fill:#000000;fill-opacity:1;fill-rule:evenodd;stroke:none"
         id="path3763"
         sodipodi:cx="323.50134"
         sodipodi:cy="503.5968"
         sodipodi:rx="2.7779195"
         sodipodi:ry="2.7779195"
         d="m 326.27926,503.5968 a 2.7779195,2.7779195 0 1 1 -5.55584,0 2.7779195,2.7779195 0 1 1 5.55584,0 z"
         transform="matrix(1.5454545,0,0,1.5454545,-411.82082,-244.88965)" />
      <path
         transform="matrix(1.5454545,0,0,1.5454545,-377.47563,-296.91251)"
         d="m 326.27926,503.5968 a 2.7779195,2.7779195 0 1 1 -5.55584,0 2.7779195,2.7779195 0 1 1 5.55584,0 z"
         sodipodi:ry="2.7779195"
         sodipodi:rx="2.7779195"
         sodipodi:cy="503.5968"
         sodipodi:cx="323.50134"
         id="path3765"
         style="fill:#000000;fill-opacity:1;fill-rule:evenodd;stroke:none"
         sodipodi:type="arc" />
      <path
         sodipodi:type="arc"
         style="fill:#000000;fill-opacity:1;fill-rule:evenodd;stroke:none"
         id="path3767"
         sodipodi:cx="323.50134"
         sodipodi:cy="503.5968"
         sodipodi:rx="2.7779195"
         sodipodi:ry="2.7779195"
         d="m 326.27926,503.5968 a 2.7779195,2.7779195 0 1 1 -5.55584,0 2.7779195,2.7779195 0 1 1 5.55584,0 z"
         transform="matrix(1.5454545,0,0,1.5454545,-306.25988,-183.77542)" />
      <path
         transform="matrix(1.5454545,0,0,1.5454545,-263.83346,-253.98102)"
         d="m 326.27926,503.5968 a 2.7779195,2.7779195 0 1 1 -5.55584,0 2.7779195,2.7779195 0 1 1 5.55584,0 z"
         sodipodi:ry="2.7779195"
         sodipodi:rx="2.7779195"
         sodipodi:cy="503.5968"
         sodipodi:cx="323.50134"
         id="path3769"
         style="fill:#000000;fill-opacity:1;fill-rule:evenodd;stroke:none"
         sodipodi:type="arc" />
      <path
         sodipodi:type="arc"
         style="fill:#000000;fill-opacity:1;fill-rule:evenodd;stroke:none"
         id="path3771"
         sodipodi:cx="323.50134"
         sodipodi:cy="503.5968"
         sodipodi:rx="2.7779195"
         sodipodi:ry="2.7779195"
         d="m 326.27926,503.5968 a 2.7779195,2.7779195 0 1 1 -5.55584,0 2.7779195,2.7779195 0 1 1 5.55584,0 z"
         transform="matrix(1.5454545,0,0,1.5454545,-329.49337,-223.67644)" />
      <path
         transform="matrix(1.5454545,0,0,1.5454545,-369.3944,-200.94801)"
         d="m 326.27926,503.5968 a 2.7779195,2.7779195 0 1 1 -5.55584,0 2.7779195,2.7779195 0 1 1 5.55584,0 z"
         sodipodi:ry="2.7779195"
         sodipodi:rx="2.7779195"
         sodipodi:cy="503.5968"
         sodipodi:cx="323.50134"
         id="path3773"
         style="fill:#000000;fill-opacity:1;fill-rule:evenodd;stroke:none"
         sodipodi:type="arc" />
      <path
         sodipodi:type="arc"
         style="fill:#000000;fill-opacity:1;fill-rule:evenodd;stroke:none"
         id="path3775"
         sodipodi:cx="323.50134"
         sodipodi:cy="503.5968"
         sodipodi:rx="2.7779195"
         sodipodi:ry="2.7779195"
         d="m 326.27926,503.5968 a 2.7779195,2.7779195 0 1 1 -5.55584,0 2.7779195,2.7779195 0 1 1 5.55584,0 z"
         transform="matrix(1.5454545,0,0,1.5454545,-402.22435,-187.81602)" />
      <path
         transform="matrix(1.5454545,0,0,1.5454545,-323.43246,-200.94801)"
         d="m 326.27926,503.5968 a 2.7779195,2.7779195 0 1 1 -5.55584,0 2.7779195,2.7779195 0 1 1 5.55584,0 z"
         sodipodi:ry="2.7779195"
         sodipodi:rx="2.7779195"
         sodipodi:cy="503.5968"
         sodipodi:cx="323.50134"
         id="path3777"
         style="fill:#000000;fill-opacity:1;fill-rule:evenodd;stroke:none"
         sodipodi:type="arc" />
      <path
         sodipodi:type="arc"
         style="fill:#000000;fill-opacity:1;fill-rule:evenodd;stroke:none"
         id="path3779"
         sodipodi:cx="323.50134"
         sodipodi:cy="503.5968"
         sodipodi:rx="2.7779195"
         sodipodi:ry="2.7779195"
         d="m 326.27926,503.5968 a 2.7779195,2.7779195 0 1 1 -5.55584,0 2.7779195,2.7779195 0 1 1 5.55584,0 z"
         transform="matrix(1.5454545,0,0,1.5454545,-413.84111,-209.53431)" />
      <path
         transform="matrix(1.5454545,0,0,1.5454545,-421.92233,-268.62823)"
         d="m 326.27926,503.5968 a 2.7779195,2.7779195 0 1 1 -5.55584,0 2.7779195,2.7779195 0 1 1 5.55584,0 z"
         sodipodi:ry="2.7779195"
         sodipodi:rx="2.7779195"
         sodipodi:cy="503.5968"
         sodipodi:cx="323.50134"
         id="path3781"
         style="fill:#000000;fill-opacity:1;fill-rule:evenodd;stroke:none"
         sodipodi:type="arc" />
      <path
         sodipodi:type="arc"
         style="fill:#000000;fill-opacity:1;fill-rule:evenodd;stroke:none"
         id="path3783"
         sodipodi:cx="323.50134"
         sodipodi:cy="503.5968"
         sodipodi:rx="2.7779195"
         sodipodi:ry="2.7779195"
         d="m 326.27926,503.5968 a 2.7779195,2.7779195 0 1 1 -5.55584,0 2.7779195,2.7779195 0 1 1 5.55584,0 z"
         transform="matrix(1.5454545,0,0,1.5454545,-381.01114,-243.37442)" />
      <path
         transform="matrix(1.5454545,0,0,1.5454545,-382.0213,-180.23988)"
         d="m 326.27926,503.5968 a 2.7779195,2.7779195 0 1 1 -5.55584,0 2.7779195,2.7779195 0 1 1 5.55584,0 z"
         sodipodi:ry="2.7779195"
         sodipodi:rx="2.7779195"
         sodipodi:cy="503.5968"
         sodipodi:cx="323.50134"
         id="path3785"
         style="fill:#000000;fill-opacity:1;fill-rule:evenodd;stroke:none"
         sodipodi:type="arc" />
      <path
         sodipodi:type="arc"
         style="fill:#000000;fill-opacity:1;fill-rule:evenodd;stroke:none"
         id="path3787"
         sodipodi:cx="323.50134"
         sodipodi:cy="503.5968"
         sodipodi:rx="2.7779195"
         sodipodi:ry="2.7779195"
         d="m 326.27926,503.5968 a 2.7779195,2.7779195 0 1 1 -5.55584,0 2.7779195,2.7779195 0 1 1 5.55584,0 z"
         transform="matrix(1.5454545,0,0,1.5454545,-353.23195,-306.50895)" />
      <path
         transform="matrix(1.5454545,0,0,1.5454545,-268.88421,-334.79323)"
         d="m 326.27926,503.5968 a 2.7779195,2.7779195 0 1 1 -5.55584,0 2.7779195,2.7779195 0 1 1 5.55584,0 z"
         sodipodi:ry="2.7779195"
         sodipodi:rx="2.7779195"
         sodipodi:cy="503.5968"
         sodipodi:cx="323.50134"
         id="path3789"
         style="fill:#000000;fill-opacity:1;fill-rule:evenodd;stroke:none"
         sodipodi:type="arc" />
      <path
         sodipodi:type="arc"
         style="fill:#000000;fill-opacity:1;fill-rule:evenodd;stroke:none"
         id="path3791"
         sodipodi:cx="323.50134"
         sodipodi:cy="503.5968"
         sodipodi:rx="2.7779195"
         sodipodi:ry="2.7779195"
         d="m 326.27926,503.5968 a 2.7779195,2.7779195 0 1 1 -5.55584,0 2.7779195,2.7779195 0 1 1 5.55584,0 z"
         transform="matrix(1.5454545,0,0,1.5454545,-406.26496,-302.97342)" />
      <path
         transform="matrix(1.5454545,0,0,1.5454545,-301.20909,-225.69674)"
         d="m 326.27926,503.5968 a 2.7779195,2.7779195 0 1 1 -5.55584,0 2.7779195,2.7779195 0 1 1 5.55584,0 z"
         sodipodi:ry="2.7779195"
         sodipodi:rx="2.7779195"
         sodipodi:cy="503.5968"
         sodipodi:cx="323.50134"
         id="path3793"
         style="fill:#000000;fill-opacity:1;fill-rule:evenodd;stroke:none"
         sodipodi:type="arc" />
      <path
         sodipodi:type="arc"
         style="fill:#000000;fill-opacity:1;fill-rule:evenodd;stroke:none"
         id="path3795"
         sodipodi:cx="323.50134"
         sodipodi:cy="503.5968"
         sodipodi:rx="2.7779195"
         sodipodi:ry="2.7779195"
         d="m 326.27926,503.5968 a 2.7779195,2.7779195 0 1 1 -5.55584,0 2.7779195,2.7779195 0 1 1 5.55584,0 z"
         transform="matrix(1.5454545,0,0,1.5454545,-341.11013,-265.59777)" />
      <path
         transform="matrix(1.5454545,0,0,1.5454545,-311.81571,-294.38712)"
         d="m 326.27926,503.5968 a 2.7779195,2.7779195 0 1 1 -5.55584,0 2.7779195,2.7779195 0 1 1 5.55584,0 z"
         sodipodi:ry="2.7779195"
         sodipodi:rx="2.7779195"
         sodipodi:cy="503.5968"
         sodipodi:cx="323.50134"
         id="path3797"
         style="fill:#000000;fill-opacity:1;fill-rule:evenodd;stroke:none"
         sodipodi:type="arc" />
    </g>
    <g
       id="g3897"
       inkscape:export-filename="/home/zeferino/Documentos/talks/slides/img/pmed2.png"
       inkscape:export-xdpi="139.21165"
       inkscape:export-ydpi="139.21165">
      <rect
         style="fill:#ffffff;fill-opacity:1;fill-rule:evenodd;stroke:none"
         id="rect3799"
         width="193.9493"
         height="193.9493"
         x="326.07623"
         y="434.6539" />
      <path
         sodipodi:type="arc"
         style="fill:#000000;fill-opacity:1;fill-rule:evenodd;stroke:none"
         id="path3801"
         sodipodi:cx="323.50134"
         sodipodi:cy="503.5968"
         sodipodi:rx="2.7779195"
         sodipodi:ry="2.7779195"
         d="m 326.27926,503.5968 a 2.7779195,2.7779195 0 1 1 -5.55584,0 2.7779195,2.7779195 0 1 1 5.55584,0 z"
         transform="matrix(1.5454545,0,0,1.5454545,-13.013614,-200.44295)" />
      <path
         transform="matrix(1.5454545,0,0,1.5454545,-157.46542,-321.66126)"
         d="m 326.27926,503.5968 a 2.7779195,2.7779195 0 1 1 -5.55584,0 2.7779195,2.7779195 0 1 1 5.55584,0 z"
         sodipodi:ry="2.7779195"
         sodipodi:rx="2.7779195"
         sodipodi:cy="503.5968"
         sodipodi:cx="323.50134"
         id="path3803"
         style="fill:#000000;fill-opacity:1;fill-rule:evenodd;stroke:none"
         sodipodi:type="arc" />
      <path
         sodipodi:type="arc"
         style="fill:#000000;fill-opacity:1;fill-rule:evenodd;stroke:none"
         id="path3805"
         sodipodi:cx="323.50134"
         sodipodi:cy="503.5968"
         sodipodi:rx="2.7779195"
         sodipodi:ry="2.7779195"
         d="m 326.27926,503.5968 a 2.7779195,2.7779195 0 1 1 -5.55584,0 2.7779195,2.7779195 0 1 1 5.55584,0 z"
         transform="matrix(1.5454545,0,0,1.5454545,-125.14054,-317.11557)" />
      <path
         transform="matrix(1.5454545,0,0,1.5454545,-151.40451,-243.8795)"
         d="m 326.27926,503.5968 a 2.7779195,2.7779195 0 1 1 -5.55584,0 2.7779195,2.7779195 0 1 1 5.55584,0 z"
         sodipodi:ry="2.7779195"
         sodipodi:rx="2.7779195"
         sodipodi:cy="503.5968"
         sodipodi:cx="323.50134"
         id="path3807"
         style="fill:#000000;fill-opacity:1;fill-rule:evenodd;stroke:none"
         sodipodi:type="arc" />
      <path
         transform="matrix(1.5454545,0,0,1.5454545,-45.843574,-182.76527)"
         d="m 326.27926,503.5968 a 2.7779195,2.7779195 0 1 1 -5.55584,0 2.7779195,2.7779195 0 1 1 5.55584,0 z"
         sodipodi:ry="2.7779195"
         sodipodi:rx="2.7779195"
         sodipodi:cy="503.5968"
         sodipodi:cx="323.50134"
         id="path3811"
         style="fill:#000000;fill-opacity:1;fill-rule:evenodd;stroke:none"
         sodipodi:type="arc" />
      <path
         sodipodi:type="arc"
         style="fill:#000000;fill-opacity:1;fill-rule:evenodd;stroke:none"
         id="path3813"
         sodipodi:cx="323.50134"
         sodipodi:cy="503.5968"
         sodipodi:rx="2.7779195"
         sodipodi:ry="2.7779195"
         d="m 326.27926,503.5968 a 2.7779195,2.7779195 0 1 1 -5.55584,0 2.7779195,2.7779195 0 1 1 5.55584,0 z"
         transform="matrix(1.5454545,0,0,1.5454545,-3.417154,-252.97087)" />
      <path
         transform="matrix(1.5454545,0,0,1.5454545,-69.077064,-222.66629)"
         d="m 326.27926,503.5968 a 2.7779195,2.7779195 0 1 1 -5.55584,0 2.7779195,2.7779195 0 1 1 5.55584,0 z"
         sodipodi:ry="2.7779195"
         sodipodi:rx="2.7779195"
         sodipodi:cy="503.5968"
         sodipodi:cx="323.50134"
         id="path3815"
         style="fill:#000000;fill-opacity:1;fill-rule:evenodd;stroke:none"
         sodipodi:type="arc" />
      <path
         transform="matrix(1.5454545,0,0,1.5454545,-141.80804,-186.80587)"
         d="m 326.27926,503.5968 a 2.7779195,2.7779195 0 1 1 -5.55584,0 2.7779195,2.7779195 0 1 1 5.55584,0 z"
         sodipodi:ry="2.7779195"
         sodipodi:rx="2.7779195"
         sodipodi:cy="503.5968"
         sodipodi:cx="323.50134"
         id="path3819"
         style="fill:#000000;fill-opacity:1;fill-rule:evenodd;stroke:none"
         sodipodi:type="arc" />
      <path
         sodipodi:type="arc"
         style="fill:#000000;fill-opacity:1;fill-rule:evenodd;stroke:none"
         id="path3821"
         sodipodi:cx="323.50134"
         sodipodi:cy="503.5968"
         sodipodi:rx="2.7779195"
         sodipodi:ry="2.7779195"
         d="m 326.27926,503.5968 a 2.7779195,2.7779195 0 1 1 -5.55584,0 2.7779195,2.7779195 0 1 1 5.55584,0 z"
         transform="matrix(1.5454545,0,0,1.5454545,-63.016154,-199.93786)" />
      <path
         transform="matrix(1.5454545,0,0,1.5454545,-153.4248,-208.52416)"
         d="m 326.27926,503.5968 a 2.7779195,2.7779195 0 1 1 -5.55584,0 2.7779195,2.7779195 0 1 1 5.55584,0 z"
         sodipodi:ry="2.7779195"
         sodipodi:rx="2.7779195"
         sodipodi:cy="503.5968"
         sodipodi:cx="323.50134"
         id="path3823"
         style="fill:#000000;fill-opacity:1;fill-rule:evenodd;stroke:none"
         sodipodi:type="arc" />
      <path
         sodipodi:type="arc"
         style="fill:#000000;fill-opacity:1;fill-rule:evenodd;stroke:none"
         id="path3825"
         sodipodi:cx="323.50134"
         sodipodi:cy="503.5968"
         sodipodi:rx="2.7779195"
         sodipodi:ry="2.7779195"
         d="m 326.27926,503.5968 a 2.7779195,2.7779195 0 1 1 -5.55584,0 2.7779195,2.7779195 0 1 1 5.55584,0 z"
         transform="matrix(1.5454545,0,0,1.5454545,-161.50602,-267.61808)" />
      <path
         transform="matrix(1.5454545,0,0,1.5454545,-120.59483,-242.36427)"
         d="m 326.27926,503.5968 a 2.7779195,2.7779195 0 1 1 -5.55584,0 2.7779195,2.7779195 0 1 1 5.55584,0 z"
         sodipodi:ry="2.7779195"
         sodipodi:rx="2.7779195"
         sodipodi:cy="503.5968"
         sodipodi:cx="323.50134"
         id="path3827"
         style="fill:#000000;fill-opacity:1;fill-rule:evenodd;stroke:none"
         sodipodi:type="arc" />
      <path
         sodipodi:type="arc"
         style="fill:#000000;fill-opacity:1;fill-rule:evenodd;stroke:none"
         id="path3829"
         sodipodi:cx="323.50134"
         sodipodi:cy="503.5968"
         sodipodi:rx="2.7779195"
         sodipodi:ry="2.7779195"
         d="m 326.27926,503.5968 a 2.7779195,2.7779195 0 1 1 -5.55584,0 2.7779195,2.7779195 0 1 1 5.55584,0 z"
         transform="matrix(1.5454545,0,0,1.5454545,-121.60499,-179.22973)" />
      <path
         transform="matrix(1.5454545,0,0,1.5454545,-92.81564,-305.4988)"
         d="m 326.27926,503.5968 a 2.7779195,2.7779195 0 1 1 -5.55584,0 2.7779195,2.7779195 0 1 1 5.55584,0 z"
         sodipodi:ry="2.7779195"
         sodipodi:rx="2.7779195"
         sodipodi:cy="503.5968"
         sodipodi:cx="323.50134"
         id="path3831"
         style="fill:#000000;fill-opacity:1;fill-rule:evenodd;stroke:none"
         sodipodi:type="arc" />
      <path
         sodipodi:type="arc"
         style="fill:#000000;fill-opacity:1;fill-rule:evenodd;stroke:none"
         id="path3833"
         sodipodi:cx="323.50134"
         sodipodi:cy="503.5968"
         sodipodi:rx="2.7779195"
         sodipodi:ry="2.7779195"
         d="m 326.27926,503.5968 a 2.7779195,2.7779195 0 1 1 -5.55584,0 2.7779195,2.7779195 0 1 1 5.55584,0 z"
         transform="matrix(1.5454545,0,0,1.5454545,-8.467904,-333.78308)" />
      <path
         transform="matrix(1.5454545,0,0,1.5454545,-145.84865,-301.96327)"
         d="m 326.27926,503.5968 a 2.7779195,2.7779195 0 1 1 -5.55584,0 2.7779195,2.7779195 0 1 1 5.55584,0 z"
         sodipodi:ry="2.7779195"
         sodipodi:rx="2.7779195"
         sodipodi:cy="503.5968"
         sodipodi:cx="323.50134"
         id="path3835"
         style="fill:#000000;fill-opacity:1;fill-rule:evenodd;stroke:none"
         sodipodi:type="arc" />
      <path
         transform="matrix(1.5454545,0,0,1.5454545,-80.69382,-264.58762)"
         d="m 326.27926,503.5968 a 2.7779195,2.7779195 0 1 1 -5.55584,0 2.7779195,2.7779195 0 1 1 5.55584,0 z"
         sodipodi:ry="2.7779195"
         sodipodi:rx="2.7779195"
         sodipodi:cy="503.5968"
         sodipodi:cx="323.50134"
         id="path3839"
         style="fill:#000000;fill-opacity:1;fill-rule:evenodd;stroke:none"
         sodipodi:type="arc" />
      <path
         sodipodi:type="arc"
         style="fill:#000000;fill-opacity:1;fill-rule:evenodd;stroke:none"
         id="path3841"
         sodipodi:cx="323.50134"
         sodipodi:cy="503.5968"
         sodipodi:rx="2.7779195"
         sodipodi:ry="2.7779195"
         d="m 326.27926,503.5968 a 2.7779195,2.7779195 0 1 1 -5.55584,0 2.7779195,2.7779195 0 1 1 5.55584,0 z"
         transform="matrix(1.5454545,0,0,1.5454545,-51.399404,-293.37697)" />
      <path
         inkscape:connector-curvature="0"
         id="path3867"
         d="m 353.92857,475.93361 1.07143,0.35714 -1.07143,0 0,0 28.92857,6.07143 -8.21428,-20.71428"
         style="fill:none;stroke:#000000;stroke-width:1px;stroke-linecap:butt;stroke-linejoin:miter;stroke-opacity:1" />
      <path
         inkscape:connector-curvature="0"
         id="path3869"
         d="m 342.14286,456.29075 40.71428,25.71429 24.28572,-8.57143"
         style="fill:none;stroke:#000000;stroke-width:1px;stroke-linecap:butt;stroke-linejoin:miter;stroke-opacity:1" />
      <path
         inkscape:connector-curvature="0"
         id="path3871"
         d="M 338.21429,510.93361 382.5,482.71932"
         style="fill:none;stroke:#000000;stroke-width:1px;stroke-linecap:butt;stroke-linejoin:miter;stroke-opacity:1" />
      <path
         inkscape:connector-curvature="0"
         id="path3873"
         d="m 377.85714,599.86218 12.5,-21.07143"
         style="fill:none;stroke:#000000;stroke-width:1px;stroke-linecap:butt;stroke-linejoin:miter;stroke-opacity:1" />
      <path
         inkscape:connector-curvature="0"
         id="path3875"
         d="m 357.5,592.00504 33.21429,-13.57143"
         style="fill:none;stroke:#000000;stroke-width:1px;stroke-linecap:butt;stroke-linejoin:miter;stroke-opacity:1" />
      <path
         inkscape:connector-curvature="0"
         id="path3877"
         d="m 346.07143,570.21932 44.28571,8.21429"
         style="fill:none;stroke:#000000;stroke-width:1px;stroke-linecap:butt;stroke-linejoin:miter;stroke-opacity:1" />
      <path
         inkscape:connector-curvature="0"
         id="path3879"
         d="m 348.57143,534.86218 41.78571,42.14286"
         style="fill:none;stroke:#000000;stroke-width:1px;stroke-linecap:butt;stroke-linejoin:miter;stroke-opacity:1" />
      <path
         inkscape:connector-curvature="0"
         id="path3881"
         d="m 378.21429,534.50504 12.5,43.21428"
         style="fill:none;stroke:#000000;stroke-width:1px;stroke-linecap:butt;stroke-linejoin:miter;stroke-opacity:1" />
      <path
         inkscape:connector-curvature="0"
         id="path3883"
         d="m 454.28572,596.6479 5,-43.21429"
         style="fill:none;stroke:#000000;stroke-width:1px;stroke-linecap:butt;stroke-linejoin:miter;stroke-opacity:1" />
      <path
         inkscape:connector-curvature="0"
         id="path3885"
         d="M 486.78572,578.43361 459.64286,554.1479"
         style="fill:none;stroke:#000000;stroke-width:1px;stroke-linecap:butt;stroke-linejoin:miter;stroke-opacity:1" />
      <path
         inkscape:connector-curvature="0"
         id="path3887"
         d="M 496.42857,525.57647 459.64286,554.1479"
         style="fill:none;stroke:#000000;stroke-width:1px;stroke-linecap:butt;stroke-linejoin:miter;stroke-opacity:1" />
      <path
         inkscape:connector-curvature="0"
         id="path3889"
         d="m 447.85714,484.86218 -64.64285,-2.5 35.71428,31.42857"
         style="fill:none;stroke:#000000;stroke-width:1px;stroke-linecap:butt;stroke-linejoin:miter;stroke-opacity:1" />
      <path
         inkscape:connector-curvature="0"
         id="path3891"
         d="m 429.28571,554.86218 c 2.14286,0 30.35715,-1.42857 30.35715,-1.42857"
         style="fill:none;stroke:#000000;stroke-width:1px;stroke-linecap:butt;stroke-linejoin:miter;stroke-opacity:1" />
      <path
         inkscape:connector-curvature="0"
         id="path3893"
         d="m 436.78571,579.1479 22.14286,-24.64286"
         style="fill:none;stroke:#000000;stroke-width:1px;stroke-linecap:butt;stroke-linejoin:miter;stroke-opacity:1" />
      <path
         inkscape:connector-curvature="0"
         id="path3895"
         d="M 491.42857,445.21932 459.64286,553.07647"
         style="fill:none;stroke:#000000;stroke-width:1px;stroke-linecap:butt;stroke-linejoin:miter;stroke-opacity:1" />
      <path
         sodipodi:type="arc"
         style="fill:#3d7f17;fill-opacity:1;fill-rule:evenodd;stroke:none"
         id="path3809"
         sodipodi:cx="323.50134"
         sodipodi:cy="503.5968"
         sodipodi:rx="2.7779195"
         sodipodi:ry="2.7779195"
         d="m 326.27926,503.5968 a 2.7779195,2.7779195 0 1 1 -5.55584,0 2.7779195,2.7779195 0 1 1 5.55584,0 z"
         transform="matrix(1.5454545,0,0,1.5454545,-117.05932,-295.90236)" />
      <path
         sodipodi:type="arc"
         style="fill:#3d7f17;fill-opacity:1;fill-rule:evenodd;stroke:none"
         id="path3817"
         sodipodi:cx="323.50134"
         sodipodi:cy="503.5968"
         sodipodi:rx="2.7779195"
         sodipodi:ry="2.7779195"
         d="m 326.27926,503.5968 a 2.7779195,2.7779195 0 1 1 -5.55584,0 2.7779195,2.7779195 0 1 1 5.55584,0 z"
         transform="matrix(1.5454545,0,0,1.5454545,-108.97809,-199.93786)" />
      <path
         sodipodi:type="arc"
         style="fill:#3d7f17;fill-opacity:1;fill-rule:evenodd;stroke:none"
         id="path3837"
         sodipodi:cx="323.50134"
         sodipodi:cy="503.5968"
         sodipodi:rx="2.7779195"
         sodipodi:ry="2.7779195"
         d="m 326.27926,503.5968 a 2.7779195,2.7779195 0 1 1 -5.55584,0 2.7779195,2.7779195 0 1 1 5.55584,0 z"
         transform="matrix(1.5454545,0,0,1.5454545,-40.792784,-224.68659)" />
    </g>
  </g>
</svg>
